<?xml version="1.0" encoding="UTF-8" standalone="no"?>
<!-- Created with Inkscape (http://www.inkscape.org/) -->

<svg
   width="1980"
   height="150"
   viewBox="0 0 523.87499 39.6875"
   version="1.1"
   id="svg1"
   xmlns="http://www.w3.org/2000/svg"
   xmlns:svg="http://www.w3.org/2000/svg">
  <defs
     id="defs1" />
  <g
     id="layer1">
    <path
       id="path1"
       style="fill:#283320;stroke:none;stroke-width:1.1;stroke-linecap:round;stroke-linejoin:round;paint-order:stroke fill markers"
       d="M 448.73333 0.44493408 A 76.199997 55.033333 0 0 0 388.25899 21.998657 A 40.216667 38.099998 0 0 0 361.95 12.7 A 40.216667 38.099998 0 0 0 324.3895 37.457145 A 29.84576 26.987497 0 0 0 300.35428 26.458333 A 29.84576 26.987497 0 0 0 277.88071 35.698596 A 35.983334 31.75 0 0 0 247.65 21.166667 A 35.983334 31.75 0 0 0 214.95329 39.670447 A 25.4 25.4 0 0 0 194.73333 29.633333 A 25.4 25.4 0 0 0 177.47754 36.459273 A 40.216667 35.983334 0 0 0 141.81667 16.933333 A 40.216667 35.983334 0 0 0 107.67922 33.962268 A 35.890396 29.633333 0 0 0 82.456982 25.4 A 35.890396 29.633333 0 0 0 55.54338 35.784896 A 21.166666 19.049999 0 0 0 38.1 27.516667 A 21.166666 19.049999 0 0 0 19.944519 36.842196 A 17.991667 17.991667 0 0 0 7.4083333 31.75 A 17.991667 17.991667 0 0 0 0 33.736959 L 0 39.6875 L 523.875 39.6875 L 523.875 33.97002 L 523.875 33.3375 A 17.991667 17.991667 0 0 0 522.78618 33.906974 A 19.049999 19.049999 0 0 0 522.09061 33.866667 A 19.049999 19.049999 0 0 0 518.9616 34.157088 A 76.199997 55.033333 0 0 0 448.73333 0.44493408 z " />
  </g>
</svg>
