<?xml version="1.0" encoding="UTF-8" standalone="no"?>
<!-- Created with Inkscape (http://www.inkscape.org/) -->

<svg
   width="11.077429mm"
   height="6.9245911mm"
   viewBox="0 0 11.077429 6.9245911"
   version="1.1"
   id="svg1"
   xml:space="preserve"
   xmlns="http://www.w3.org/2000/svg"
   xmlns:svg="http://www.w3.org/2000/svg"><defs
     id="defs1" /><g
     id="layer1"
     transform="matrix(0.5,0,0,0.5,-30.658145,-69.23618)"><path
       id="path18"
       style="fill:#283320;fill-opacity:1;stroke:none;stroke-width:1.1;stroke-linecap:round;stroke-linejoin:round;paint-order:stroke fill markers"
       d="m 77.948247,138.47236 c -0.08143,0.11896 -0.41244,0.25893 -0.906819,0.4377 -2.10544,1.1119 -4.165522,2.37225 -6.148461,3.69693 -1.700792,1.15321 -3.705581,2.19911 -5.07876,2.64945 -1.015813,0.33313 -1.939864,0.98282 -3.485059,2.44946 -0.80426,0.76338 -1.012858,1.15468 -1.012858,1.90325 0,1.23522 0.887696,2.25127 2.248958,2.57348 1.585313,0.37524 7.444985,-0.0733 9.466668,-0.58992 2.024179,-0.94099 4.048358,-2.26362 6.072536,-3.53438 1.828493,-1.33711 3.453859,-2.72501 4.192409,-4.33461 1.215991,-3.22706 -4.292228,-4.95464 -5.348614,-5.25136 z" /></g></svg>
