<?xml version="1.0" encoding="UTF-8" standalone="no"?>
<!-- Created with Inkscape (http://www.inkscape.org/) -->

<svg
   width="33.909264mm"
   height="59.873554mm"
   viewBox="0 0 33.909264 59.873555"
   version="1.1"
   id="svg1"
   xml:space="preserve"
   xmlns="http://www.w3.org/2000/svg"
   xmlns:svg="http://www.w3.org/2000/svg"><defs
     id="defs1" /><g
     id="layer1"
     transform="matrix(0.5,0,0,0.5,-7.3063112,-5.7124002)"><path
       id="path1"
       style="fill:#283320;fill-opacity:1"
       d="m 80.06178,11.427209 c -0.669569,-0.02828 -1.740142,0.192777 -3.567224,0.647506 -2.444426,0.608381 -8.517783,3.282473 -9.457304,4.164087 -0.196409,0.184304 -1.248668,0.927459 -2.338359,1.651579 -1.093341,0.726545 -3.553745,2.888362 -5.490104,4.823478 l -3.50883,3.506246 -1.385962,-0.288355 c -0.762229,-0.158604 -1.66676,-0.421307 -2.010213,-0.583943 -0.785777,-0.372062 -7.273249,-0.374646 -7.756116,-0.0031 -0.192976,0.148491 -1.058591,0.422353 -1.923913,0.608749 l -1.573547,0.338997 -0.805119,-1.022677 c -1.708688,-2.170583 -5.945655,-6.06755 -8.321456,-7.653279 -0.671209,-0.447999 -1.692921,-1.140109 -2.270146,-1.537891 -0.982837,-0.677299 -2.150799,-1.266173 -5.697327,-2.873726 -1.75359,-0.794861 -6.072724,-1.857556 -7.07812,-1.741496 -0.970026,0.111977 -1.282506,0.86269 -1.631942,3.919657 -1.051583,9.199469 -0.832672,14.728277 0.948262,23.944792 0.224955,1.164163 0.499051,2.23573 0.609265,2.38125 0.110219,0.145521 0.286154,0.621774 0.390674,1.058333 0.10452,0.436562 0.555806,1.720202 1.00304,2.852539 l 0.813387,2.058789 -0.482658,3.232878 c -0.722,4.838332 -0.649678,10.024717 0.178284,12.77183 0.353145,1.171715 0.994351,2.715957 1.424719,3.431832 0.951564,1.582845 4.311317,4.895824 5.941756,5.859074 0.65484,0.386876 1.250157,0.783573 1.322917,0.881083 0.271999,0.364504 3.372316,1.792148 5.159375,2.376083 1.018642,0.332844 1.977365,0.703437 2.130102,0.823205 0.152741,0.119768 0.777819,0.297585 1.389063,0.395325 0.813172,0.130032 1.011795,0.275832 1.138431,0.453203 0.603447,2.750311 -2.553913,8.244127 -5.084444,13.194543 0.02168,0.07498 -0.04546,0.192885 -0.21394,0.366386 -0.479805,0.494104 -1.115026,3.679054 -1.258321,6.308142 -0.149428,2.741632 0.286448,5.396962 1.091923,6.649722 0.189393,0.29457 0.430636,1.18757 0.535885,1.98437 0.406081,3.07446 1.917351,9.06595 2.750219,10.9027 0.281603,0.62103 0.645378,1.60538 0.80822,2.18746 0.162842,0.58208 0.455224,1.34243 0.649572,1.6893 0.320791,0.57253 0.261627,0.78149 -0.641821,2.2686 -1.176383,1.93637 -1.571547,3.2159 -1.573547,5.09788 -0.0018,1.65024 0.420351,2.03767 2.655135,2.43396 v -5.2e-4 c 2.781903,0.49331 8.557871,-0.13471 9.661426,-1.05058 0.273279,-0.22681 0.381888,-0.90528 0.381888,-2.38538 0,-1.13776 0.105081,-2.1339 0.233578,-2.2133 0.290828,-0.17974 0.736897,-3.36931 0.982886,-7.03058 0.217385,-3.23564 0.485878,-2.79534 0.761194,1.24747 0.09697,1.42396 0.302523,3.30337 0.456819,4.17649 0.154299,0.87309 0.263599,2.39667 0.242879,3.38532 -0.02072,0.98865 0.07923,2.0159 0.222209,2.28306 0.182868,0.3417 0.714368,0.63476 1.393713,0.89039 0.162579,0.13039 0.357723,0.23333 0.592212,0.29869 1.866702,0.49171 3.808885,0.64544 5.738151,0.56379 1.117074,-0.0189 2.183311,-0.11066 3.055628,-0.31626 0.02492,-0.004 0.05003,-0.007 0.07493,-0.0114 0.0053,-0.003 0.0098,-0.006 0.01499,-0.009 0.294987,-0.0729 0.574957,-0.15339 0.818038,-0.25063 0.812936,-0.3252 0.986141,-0.54075 1.123445,-1.39939 0.183363,-1.14669 -0.02046,-2.44402 -0.539502,-3.43855 -0.193193,-0.37019 -0.352054,-0.86375 -0.35295,-1.09658 -8.97e-4,-0.23283 -0.366965,-0.92813 -0.813903,-1.54512 -0.793038,-1.09475 -0.802529,-1.14283 -0.395325,-2.00091 0.229493,-0.48362 0.667114,-1.69331 0.97255,-2.68821 0.305441,-0.9949 0.652006,-1.9286 0.770496,-2.07481 0.347461,-0.42876 2.046267,-7.21866 2.3828,-9.52397 0.169949,-1.16417 0.400673,-2.23573 0.51263,-2.38125 0.299271,-0.38897 1.005177,-2.74512 1.198377,-3.99924 0.234404,-1.521566 -0.331719,-6.277629 -0.936894,-7.870317 -0.277546,-0.730448 -0.453697,-1.378749 -0.391707,-1.440739 0.06199,-0.06199 0.913558,0.06723 1.892391,0.286805 1.093316,0.245257 2.927543,0.384388 4.756299,0.361218 3.367007,-0.04266 4.261849,-0.420731 4.663281,-1.969906 0.46917,-1.810593 -0.965329,-3.411411 -4.558378,-5.087545 -2.884254,-1.34548 -3.511453,-1.680526 -5.159375,-2.75332 -0.873121,-0.568398 -2.387028,-1.553362 -3.364136,-2.189014 -0.977109,-0.635647 -2.137975,-1.281588 -2.579687,-1.435571 -1.073362,-0.374173 -1.012286,-0.659668 0.189135,-0.884184 0.545703,-0.101974 1.11125,-0.2728 1.256771,-0.379821 0.145521,-0.10702 0.800368,-0.344935 1.455208,-0.52865 1.969232,-0.552465 5.230215,-2.115619 7.101893,-3.404444 1.729517,-1.190934 5.598107,-4.743245 5.598107,-5.140254 0,-0.111091 0.359687,-0.786519 0.799435,-1.501201 1.452749,-2.361021 1.933233,-5.057618 1.771468,-9.942545 -0.0773,-2.334228 -0.294586,-5.22603 -0.483175,-6.425965 l -0.343131,-2.181779 1.008724,-3.109887 c 0.554754,-1.710474 1.111226,-3.310984 1.236617,-3.556889 0.813256,-1.594881 2.094646,-11.734062 2.097546,-16.59847 0.0022,-3.753773 -0.72572,-11.218281 -1.208195,-12.389425 -0.223012,-0.54133 -0.491603,-0.818693 -1.161169,-0.846977 z M 69.519271,90.479232 c 0.0024,0.01523 0.0054,0.0303 0.0083,0.04548 h -0.02015 z" /></g></svg>
